<svg width="11" height="8" viewBox="0 0 11 8" fill="none" xmlns="http://www.w3.org/2000/svg">
<path d="M8.4502 7H1.9502C1.8127 7 1.7002 7.1125 1.7002 7.25V7.75C1.7002 7.8875 1.8127 8 1.9502 8H8.4502C8.5877 8 8.7002 7.8875 8.7002 7.75V7.25C8.7002 7.1125 8.5877 7 8.4502 7ZM9.4502 2C9.03613 2 8.7002 2.33594 8.7002 2.75C8.7002 2.86094 8.7252 2.96406 8.76895 3.05938L7.6377 3.7375C7.39707 3.88125 7.08613 3.8 6.94707 3.55625L5.67363 1.32812C5.84082 1.19063 5.9502 0.984375 5.9502 0.75C5.9502 0.335938 5.61426 0 5.2002 0C4.78613 0 4.4502 0.335938 4.4502 0.75C4.4502 0.984375 4.55957 1.19063 4.72676 1.32812L3.45332 3.55625C3.31426 3.8 3.00176 3.88125 2.7627 3.7375L1.63301 3.05938C1.6752 2.96563 1.70176 2.86094 1.70176 2.75C1.70176 2.33594 1.36582 2 0.951758 2C0.537695 2 0.200195 2.33594 0.200195 2.75C0.200195 3.16406 0.536133 3.5 0.950195 3.5C0.99082 3.5 1.03145 3.49375 1.07051 3.4875L2.2002 6.5H8.2002L9.32988 3.4875C9.36895 3.49375 9.40957 3.5 9.4502 3.5C9.86426 3.5 10.2002 3.16406 10.2002 2.75C10.2002 2.33594 9.86426 2 9.4502 2Z" fill="white"/>
</svg>
